# xmcd CD database file
#
# Track frame offsets:
#	150
#	21967
#	45692
#	57407
#	74327
#	99915
#	112130
#	126417
#	142850
#	158335
#
# Disc length: 2307 seconds
#
# Revision: 0
# Processed by: cddbd v1.4PL0 Copyright (c) Steve Scherf et al.
# Submitted via: CDex 1.50beta10
#
DISCID=8609010a
DTITLE=Tutu Jones - Staying Power
DYEAR=1998
DGENRE=Blues
TTITLE0=Daylight Caught Us Red Handed
TTITLE1=The Milkman Game
TTITLE2=Can't Leave Your Love Alone
TTITLE3=After Midnight
TTITLE4=Good Juice
TTITLE5=Be Good to Your Lady
TTITLE6=She So Fine
TTITLE7=You Shatter My Heart
TTITLE8=Romance Avenue
TTITLE9=After Loving You
EXTD=YEAR: 1998
EXTT0=
EXTT1=
EXTT2=
EXTT3=
EXTT4=
EXTT5=
EXTT6=
EXTT7=
EXTT8=
EXTT9=
PLAYORDER=
